<?xml version="1.0" encoding="utf-8"?>
<!-- Generator: Adobe Illustrator 22.1.0, SVG Export Plug-In . SVG Version: 6.00 Build 0)  -->
<svg version="1.1" id="Capa_1" xmlns="http://www.w3.org/2000/svg" xmlns:xlink="http://www.w3.org/1999/xlink" x="0px" y="0px"
	 viewBox="0 0 60 60" style="enable-background:new 0 0 60 60;" xml:space="preserve">
<style type="text/css">
	.st0{fill:#FFFFFF;}
</style>
<circle cx="30" cy="30" r="30"/>
<g>
	<path class="st0" d="M25.1,30.6c-1.9,0-2,0-2,1.4v6.8c0,4.4,0.3,4.8,2.4,5.1L27,44c0.4,0.3,0.4,1.4,0,1.6c-2.7-0.1-5-0.1-7.1-0.1
		c-2.3,0-4.6,0-7,0.1c-0.4-0.3-0.4-1.4,0-1.6l1.1-0.1c2.2-0.3,2.4-0.8,2.4-5.1V21.3c0-4.4-0.2-4.8-2.4-5.1L12.9,16
		c-0.4-0.3-0.4-1.4,0-1.6c2.3,0.1,4.7,0.1,7,0.1c2.1,0,4.5,0,6.5-0.1c0.4,0.3,0.4,1.4,0,1.6l-1,0.1c-2,0.3-2.3,0.8-2.3,5.1v5.5
		c0,1.4,0,1.4,2,1.4h9.8c2,0,2,0,2-1.4v-5.5c0-4.4-0.2-4.7-2.4-5.1L33.2,16c-0.4-0.3-0.4-1.4,0-1.6c2.6,0.1,4.9,0.1,7.1,0.1
		c2.3,0,4.5,0,6.6-0.1c0.4,0.3,0.4,1.4,0,1.6L46,16.1c-2.2,0.3-2.4,0.8-2.4,5.1v17.5c0,4.4,0.3,4.7,2.4,5.1l1.1,0.2
		c0.4,0.3,0.4,1.4,0,1.6c-2.3-0.1-4.7-0.1-6.8-0.1c-2.3,0-4.7,0-6.9,0.1c-0.4-0.3-0.4-1.4,0-1.6l1-0.1c2.2-0.3,2.4-0.8,2.4-5.1V32
		c0-1.3,0-1.4-2-1.4H25.1z"/>
</g>
</svg>
